<svg width="462" height="161" viewBox="0 0 462 161" fill="none" xmlns="http://www.w3.org/2000/svg">
<path d="M229.833 0.330917C205.3 24.8644 191.547 38.6177 167.029 63.1352V160.315H264.209C273.145 151.379 280.665 143.859 287.788 136.736C300.874 123.666 313.944 110.58 327.029 97.5107V0.330917H229.849H229.833Z" fill="white"/>
<path d="M249.168 98.7987V45.884L194.25 98.7987H249.168Z" fill="white"/>
<path d="M167.029 125.017V160.315H249.168V109.181H183.47L167.029 125.017Z" fill="white"/>
<path d="M0.446533 36.0578H17.5707L70.9305 112.25L124.433 36.0578H141.033V124.604H130.412V44.8186L74.651 124.604H66.8124L11.0676 44.8186V124.604H0.446533V36.0578Z" fill="white"/>
<path d="M350.195 36.0578H367.319L450.952 117.036V36.0578H461.573V124.604H444.449L360.816 43.6261V124.604H350.195V36.0578Z" fill="white"/>
<path d="M229.833 0.330918C205.3 24.8644 191.547 38.6177 167.029 63.1352V110.596L248.961 31.6853L249.184 31.908V31.6853H259.566V160.315H264.225C273.16 151.379 280.681 143.859 287.804 136.736V31.6694H298.187V126.353C306.932 117.608 315.867 108.672 327.045 97.4948V0.315002H229.865L229.833 0.330918Z" fill="#00DE97"/>
<path d="M249.168 98.7987V45.884L194.25 98.7987H249.168Z" fill="#00DE97"/>
<path d="M183.47 109.181L167.029 125.017V160.315H249.168V109.181H183.47Z" fill="#00DE97"/>
</svg>
