<svg width="462" height="160" viewBox="0 0 462 160" fill="none" xmlns="http://www.w3.org/2000/svg">
<path d="M249.108 98.4713V45.562L194.179 98.4713H249.108Z" fill="#00DE97"/>
<path d="M166.953 124.679V160H249.108V108.84H183.397L166.953 124.679Z" fill="#00DE97"/>
<path d="M0.353638 35.7181H17.4812L70.8516 111.925L124.365 35.7181H140.952V124.266H130.329V44.4806L74.5729 124.266H66.7327L10.9768 44.4806V124.266H0.353638V35.7181Z" fill="#00DE97"/>
<path d="M350.14 35.7181H367.267L450.917 116.712V35.7181H461.524V124.266H444.413L360.763 43.2879V124.266H350.14V35.7181Z" fill="#00DE97"/>
<path d="M229.77 0C205.248 24.5224 191.492 38.2785 166.953 62.8168V110.287L248.886 31.3607L249.108 31.5833V31.3607H259.493V160H264.152C273.09 151.063 280.612 143.54 287.721 136.432V31.3607H298.105V126.047C306.852 117.3 315.789 108.363 326.969 97.1991V0H229.786H229.77Z" fill="#101A3B"/>
<path d="M249.108 98.4713V45.562L194.179 98.4713H249.108Z" fill="#101A3B"/>
<path d="M183.413 108.84L166.953 124.679V160H249.108V108.84H183.413Z" fill="#101A3B"/>
</svg>
